<?xml version="1.0" encoding="UTF-8" standalone="no"?>
<!DOCTYPE svg PUBLIC "-//W3C//DTD SVG 1.1//EN" "http://www.w3.org/Graphics/SVG/1.1/DTD/svg11.dtd">
<svg width="100%" height="100%" viewBox="0 0 60 60" version="1.1" xmlns="http://www.w3.org/2000/svg" xmlns:xlink="http://www.w3.org/1999/xlink" xml:space="preserve" xmlns:serif="http://www.serif.com/" style="fill-rule:evenodd;clip-rule:evenodd;stroke-linejoin:round;stroke-miterlimit:2;">
    <g id="Pause" transform="matrix(1,0,0,1,-6,-6)">
        <rect id="Shape" x="0" y="0" width="72" height="72" style="fill:none;"/>
        <path id="Shape1" serif:id="Shape" d="M27,48L33,48L33,24L27,24L27,48ZM36,6C19.44,6 6,19.44 6,36C6,52.56 19.44,66 36,66C52.56,66 66,52.56 66,36C66,19.44 52.56,6 36,6ZM36,60C22.77,60 12,49.23 12,36C12,22.77 22.77,12 36,12C49.23,12 60,22.77 60,36C60,49.23 49.23,60 36,60ZM39,48L45,48L45,24L39,24L39,48Z" style="fill:rgb(167,35,100);"/>
    </g>
</svg>
